<svg width="297.9341790447617" height="304.91925659179685" viewBox="0 0 312.5 319.82657374339226" class="css-1j8o68f"><defs id="SvgjsDefs1303"></defs><g id="SvgjsG1304" featurekey="rootContainer" transform="matrix(3.021815129688323,0,0,3.021815129688323,-0.3742275421386347,0.11851630326547433)" fill="#fff4e1"><g xmlns="http://www.w3.org/2000/svg"><path d="M40.7 103.4a3 3 0 0 0-1.9-.4c.3.8-.2.8-.7.7s-1-.6-1.5 0 2 .4 3 .8a.9.9 0 0 0 1.1 0 3.7 3.7 0 0 0 0-1.1zM11.9 87c-.7-.2-1.1-.6-1.7-.8s-.5-.7-.8-1.1H9a2 2 0 0 0 1.1 1.6 4.7 4.7 0 0 0 1.5 1.8c0-.5 1.8-1.2.3-1.5zm3.5 4.5a2.4 2.4 0 0 1-1.1-1.1.2.2 0 0 0-.4 0l-.4.4 2.2 1.9V92zm-7.5-8.6h-.8l1.1 1.5a.8.8 0 0 0 .4-.7.3.3 0 0 0 .1-.4 1 1 0 0 0-.8-.4zm2.4-62.1c0-.4.1-.8-.6-.7h-.3L9 21.6c.7.2 1.1-.2 1.3-.8zm17.8 79.3v.7h.7c.2 0 .6-.1.5-.3s-.8-.4-1.2-.4z"></path><path d="M103.4 57.2v-2.3c0-1.2.5-2.5-.4-3.7v-.4a6 6 0 0 0 0-4.2l-.2-1.4-.3-1.6v-.8c-.2-1 .1-2.1-1.1-2.7a.2.2 0 0 0 0-.2v-1.1a3.7 3.7 0 0 0-.8-1.9c-.2-.7-.2-1.4-.7-2v-.6l-.4-1.2c-.2-.5-.2-1.1-.7-1.5l-3-5.9h-.3V25l-1-.9c-1.1-1.7-2-3.6-3.4-5.1l-.4-.8-.8-.3-.7-.8-3.2-3.7h-.4c-.1-.3-.4-.3-.7-.3a4 4 0 0 0-2.7-1.9c-.3-1.4-1.5-1.7-2.6-2.2l-.3-.3a2.1 2.1 0 0 0-1.5-.8l-.4-.7h-.7l-3.5-2.1C72 5 71 4.1 69.8 3.7h-.7A1 1 0 0 0 68 3l-1.8-.5-1.5-.6-.8-.4h-.7l-1.5-.3a1.1 1.1 0 0 0-1.1.3c-.1-.7-.7-.7-1.2-.8h-.7l-1 .3c-.5-1.2-1.6-.5-2.4-.7L53.5 0h-.4c-1.1.1-2.3-.3-3.4.3h-4.5l-.4.4h-2.2l-1.9.3c-.8.2-1.6.1-2.3.7a3.7 3.7 0 0 1-2.6.1l-1.1.6h-.4l-.3.2a2 2 0 0 0-1.4.7h-.1l-.9.4h-.1c-.3-.1-.6.2-.9.1l-.3.4-.8.6c-.2-.3-.4-.2-.7-.2v.7a1.8 1.8 0 0 0-1.9.4h-.7l-1.2 1h.2l-.8.8H24a2.5 2.5 0 0 0-1.9 1.4c-.6.5-1.5.6-1.9 1.4h-.3v.4a2 2 0 0 0-1.6 1.1 2.3 2.3 0 0 0-1.1 1.2 1.7 1.7 0 0 0-1.5 1.1 4.5 4.5 0 0 0-1.9 1.9l-.3.4c.2.4.9.4 1.4.5a50.9 50.9 0 0 0 28.6 86.2.8.8 0 0 0 .7.3h.7a51.3 51.3 0 0 0 6 .4h.8a1.4 1.4 0 0 1 .1.6c-1.5.9-3.1-1.4-4.6.1.3.3.8.3.8.9l4.8.4H54a2 2 0 0 1 0-.3 3.4 3.4 0 0 0 1.8-.5c.6-.1 1.2 1 1.7-.1.9 0 1.9.4 2.6-.7h.1c.9 0 1.9.6 2.6-.4l2.6-.3.4.2 2.3-1.3h1c.6.2 1-.2 1.3-.7s2.1-1 3.3-1a3 3 0 0 0 2.7-1.2l2.6-1.7c.7.1.9-.7 1.4-.8s.9-.8 1.5-1.1l.3-.3h.1c.4.1.6-.2.7-.5l.4-.4 2.3-2.6 1.1-1.1.7-.4c.6.1.7-.6 1.1-.8l.9-1.1.6-.4a1.9 1.9 0 0 0 1.3-1.3v-.2a1.8 1.8 0 0 0 .5-.7h.2a1.5 1.5 0 0 0 .5-.5c-.1-.9 1.1-1.1 1.1-2l.9-1.4a1.9 1.9 0 0 0 1.2-1.7c.2-.5.8-.7.6-1.4l.8-.8v-.9c.3 0 .5-.3.7-.5l.4-.7.7-1.6.4-1 .8-1.8.3-.4.2-1.1.5-1.4a1.2 1.2 0 0 0 .3-1.2c.5-.2.3-.7.5-1.1a.5.5 0 0 1 0-.4V65c.5-.5.4-1.1.4-1.7v-.5c.6-.9.2-2.1.6-3s-.3-.6.1-.8h.3v-1h-.1zm-2.9-19.5zM82.2 11.9zM65.8 3zm0 0zM56.4.8zm.1 103zm39.9-24.9zM102 62z"></path></g></g><g id="SvgjsG1305" featurekey="symbolFeature-0" transform="matrix(0.8898109477594514,0,0,0.8898109477594514,119.25129774845354,67.52487742968245)" fill="#111111"><path xmlns="http://www.w3.org/2000/svg" d="M 70.001021,60.908126 C 68.622608,58.188108 67.145285,55.569902 65.575601,53.061639 58.094083,64.673965 45.56836,75.064135 29.698243,81.525375 l 5.309266,13.040633 C 51.421671,87.88435 63.626862,75.463114 70.001021,60.908126 Z" style="" stroke="none" fill="#111111" fill-opacity="1"></path><path xmlns="http://www.w3.org/2000/svg" d="m 37.525865,76.809637 c 2.171217,-1.206804 4.270728,-2.478348 6.294108,-3.809591 C 29.857827,66.307862 16.936783,52.331384 9.3857867,33.784604 L -3.6539196,39.093492 C 4.151638,58.27083 19.793082,71.718464 37.525865,76.809637 Z" style="" stroke="none" fill="#111111" fill-opacity="1"></path><path xmlns="http://www.w3.org/2000/svg" d="M 58.448894,18.069925 53.13963,5.029296 c -18.678298,7.604542 -31.913477,22.643386 -37.293764,39.803947 1.305283,2.150557 2.682822,4.213393 4.114126,6.201433 6.947823,-13.397889 20.595079,-25.679595 38.488902,-32.964751 z" style="" stroke="none" fill="#111111" fill-opacity="1"></path><path xmlns="http://www.w3.org/2000/svg" d="M 86.252811,60.179111 C 79.002346,42.370497 64.998815,29.506309 48.838299,23.681081 c -2.333081,1.368798 -4.578063,2.810777 -6.728291,4.32107 12.665286,7.216938 24.154499,20.421334 31.10217,37.486225 l 13.040633,-5.309265 z" style="" stroke="none" fill="#111111" fill-opacity="1"></path><circle xmlns="http://www.w3.org/2000/svg" style="" cx="43.209587" cy="51.021019" r="8.1112623" fill="#111111" fill-opacity="1" fill-rule="nonzero" stroke="none"></circle></g><g id="SvgjsG1306" featurekey="nameFeature-0" transform="matrix(2.4360536384546023,0,0,2.4360536384546023,54.05115662459596,145.69061791684814)" fill="#111111"><path d="M8.76 33.04 l-7.96 -8.92 l8.96 -8.48 l2.28 1.36 l-7.16 7.4 l7.16 7.28 z M21.155 40.32 c-2.76 -0.24 -7.4 -3.4 -7.4 -3.4 l1.6 -4.44 s3.72 3.32 5.88 3.12 s3.36 -2.04 2.92 -4.24 c-0.92 -4.68 -8.52 -4.96 -8.52 -9.32 s3.08 -7.24 5.52 -7.36 c3.88 -0.2 5.92 1.76 5.92 1.76 c-0.2 0.28 -1.32 2.64 -1.32 2.64 s-4.08 -1.48 -4.76 2 c-0.92 4.64 8.24 4.2 8.4 10.44 c0.2 7.08 -5.52 9.04 -8.24 8.8 z M45.99 40.92 l-3 0.28 l0.16 -4.32 c0 0.08 -0.16 3.68 -5.64 3.48 c-9.2 -0.32 -9.52 -22.8 1.76 -24.96 c3.12 -0.6 5.28 0.72 6.56 2.96 l-2.24 3.24 c-8 -6.72 -11.2 12.12 -5.64 13.76 c3.92 1.16 4.24 -4.28 4.24 -4.28 l-2.68 0.2 l0.08 -4 l5.92 -0.36 z M51.385000000000005 41.52 l-2.2 -2.12 l17.36 -28.6 l2.16 2.08 z M73.46000000000001 33.72 l-2.08 -3.48 l7.32 -5.72 l-7.88 -6.88 l2.84 -1.92 l9.24 9.36 z"></path></g></svg>